<?xml version="1.0" encoding="utf-8"?>
<!-- Generator: Adobe Illustrator 16.0.0, SVG Export Plug-In . SVG Version: 6.00 Build 0)  -->
<!DOCTYPE svg PUBLIC "-//W3C//DTD SVG 1.1//EN" "http://www.w3.org/Graphics/SVG/1.1/DTD/svg11.dtd">
<svg version="1.1" id="Layer_1" xmlns="http://www.w3.org/2000/svg" xmlns:xlink="http://www.w3.org/1999/xlink" x="0px" y="0px"
	 width="500px" height="500px" viewBox="250 1000 500 500" enable-background="new 250 1000 500 500" xml:space="preserve">
<g>
	
		<linearGradient id="SVGID_1_" gradientUnits="userSpaceOnUse" x1="156.9165" y1="2837.3838" x2="156.9165" y2="2576.803" gradientTransform="matrix(1.9531 0 0 -1.9531 193.5234 6488.2891)">
		<stop  offset="0" style="stop-color:#528ECB"/>
		<stop  offset="0.468" style="stop-color:#77BFBE"/>
		<stop  offset="0.7635" style="stop-color:#D9CA30"/>
		<stop  offset="1" style="stop-color:#FECF0A"/>
	</linearGradient>
	<circle fill="url(#SVGID_1_)" cx="500" cy="1250" r="250"/>
	<g>
		<g>
			<path fill="#562A15" d="M347.656,1166.016c-2.344,0-4.492-0.977-6.25-2.93c-2.93-3.32-2.539-8.594,0.977-11.523
				c16.211-14.062,37.109-22.852,58.398-24.609c4.492-0.391,8.398,2.93,8.789,7.422s-2.93,8.398-7.422,8.789
				c-18.164,1.562-35.547,8.984-49.414,20.898C351.367,1165.43,349.414,1166.016,347.656,1166.016z"/>
		</g>
		<g>
			<path fill="#562A15" d="M649.609,1166.016c-1.953,0-3.711-0.586-5.273-1.953c-13.672-11.719-31.25-19.141-49.414-20.898
				c-4.492-0.391-7.812-4.297-7.422-8.789s4.297-7.812,8.789-7.422c21.484,1.953,42.188,10.742,58.398,24.609
				c3.32,2.93,3.906,8.008,0.781,11.523C654.102,1165.039,651.953,1166.016,649.609,1166.016z"/>
		</g>
	</g>
	<g>
		<g>
			<g>
				<g>
					<ellipse fill="#562A15" cx="394.531" cy="1256.641" rx="25.586" ry="36.523"/>
				</g>
			</g>
		</g>
		<g>
			<g>
				<g>
					<path fill="#562A15" d="M628.32,1256.641c0,20.117-11.523,36.523-25.586,36.523c-14.258,0-25.586-16.406-25.586-36.523
						s11.523-36.523,25.586-36.523S628.32,1236.523,628.32,1256.641z"/>
				</g>
			</g>
		</g>
	</g>
	<g>
		<g>
			<path fill="#562A15" d="M573.438,1394.727c6.445,1.367,10.938-8.398,6.641-14.648c-18.945-27.93-48.438-45.898-81.445-45.898
				s-62.5,17.969-81.445,45.898c-4.297,6.25,0.195,16.016,6.641,14.648c22.461-4.688,47.852-7.227,74.805-7.227
				S550.977,1390.039,573.438,1394.727z"/>
		</g>
	</g>
</g>
</svg>
