<?xml version="1.0" encoding="utf-8"?>
<!-- Generator: Adobe Illustrator 16.0.0, SVG Export Plug-In . SVG Version: 6.00 Build 0)  -->
<!DOCTYPE svg PUBLIC "-//W3C//DTD SVG 1.1//EN" "http://www.w3.org/Graphics/SVG/1.1/DTD/svg11.dtd">
<svg version="1.1" id="Layer_1" xmlns="http://www.w3.org/2000/svg" xmlns:xlink="http://www.w3.org/1999/xlink" x="0px" y="0px"
	 width="500px" height="500px" viewBox="0 0 500 500" enable-background="new 0 0 500 500" xml:space="preserve">
<g>
	<circle fill="#FFCE07" cx="250" cy="250" r="250"/>
	<g>
		<g>
			<g>
				<path fill="#CD352F" d="M402.93,106.641C362.11,28.907,286.719,83.985,300,142.188c10.352,45.703,60.547,110.353,60.547,110.353
					c7.228-2.539,76.953-27.734,110.353-60.742C513.086,150,479.102,62.891,402.93,106.641z"/>
			</g>
		</g>
		<g>
			<g>
				<path fill="#CD352F" d="M97.07,106.641C137.89,28.907,213.281,83.985,200,142.188c-10.352,45.703-60.547,110.353-60.547,110.353
					c-7.228-2.539-76.953-27.734-110.352-60.742C-13.086,150,20.898,62.891,97.07,106.641z"/>
			</g>
		</g>
	</g>
	<g>
		<g>
			<path fill="#562A15" d="M158.789,300.195c-6.25-2.148-12.109,4.688-10.352,11.914c10.741,42.772,52.147,74.608,101.562,74.608
				s90.82-31.836,101.562-74.608c1.759-7.228-4.102-14.062-10.352-11.914c-27.539,9.18-58.398,14.258-91.211,14.258
				S186.133,309.375,158.789,300.195z"/>
		</g>
	</g>
	<g>
		<g>
			<path fill="#CD352F" d="M250,343.359c-21.68,0-40.43,13.28-48.633,32.227c14.453,7.031,31.055,11.133,48.633,11.133
				s34.18-4.102,48.633-11.133C290.43,356.445,271.875,343.359,250,343.359z"/>
		</g>
	</g>
</g>
</svg>
