<?xml version="1.0" encoding="utf-8"?>
<!-- Generator: Adobe Illustrator 16.0.0, SVG Export Plug-In . SVG Version: 6.00 Build 0)  -->
<!DOCTYPE svg PUBLIC "-//W3C//DTD SVG 1.1//EN" "http://www.w3.org/Graphics/SVG/1.1/DTD/svg11.dtd">
<svg version="1.1" id="Layer_1" xmlns="http://www.w3.org/2000/svg" xmlns:xlink="http://www.w3.org/1999/xlink" x="0px" y="0px"
	 width="500px" height="500px" viewBox="250 1000 500 500" enable-background="new 250 1000 500 500" xml:space="preserve">
<g>
	<path fill="#FFCE07" d="M750,1250c0,138.086-111.914,250-250,250s-250-111.914-250-250s111.914-250,250-250S750,1111.914,750,1250z
		"/>
	<g>
		<g>
			<g>
				<path fill="#562A15" d="M629.492,1279.883c-0.781,0-1.562-0.195-2.344-0.391l-53.125-15.43
					c-3.125-0.977-5.469-3.711-5.859-7.031s1.367-6.445,4.297-8.008c0,0,41.406-21.289,53.711-27.93
					c3.906-2.148,8.984-0.586,10.938,3.32c2.148,3.906,0.586,8.984-3.32,10.938c-6.836,3.711-23.047,12.109-35.742,18.75
					l33.594,9.766c4.297,1.172,6.836,5.859,5.469,10.156C636.133,1277.539,633.008,1279.883,629.492,1279.883z"/>
			</g>
		</g>
		<g>
			<g>
				<path fill="#562A15" d="M370.508,1279.883c-3.516,0-6.836-2.344-7.812-5.859c-1.172-4.297,1.172-8.789,5.469-10.156
					l33.594-9.766c-12.695-6.641-28.906-15.039-35.742-18.75c-3.906-2.148-5.469-7.031-3.32-10.938s7.031-5.469,10.938-3.32
					c12.305,6.641,53.711,27.93,53.711,27.93c2.93,1.562,4.688,4.688,4.297,8.008s-2.539,6.055-5.859,7.031l-53.125,15.43
					C372.07,1279.688,371.289,1279.883,370.508,1279.883z"/>
			</g>
		</g>
	</g>
	<g>
		<g>
			<path fill="#562A15" d="M661.914,1176.758c-0.391,0-0.781,0-1.172-0.195c-40.625-6.25-61.133-39.258-61.914-40.625
				c-2.344-3.906-1.172-8.789,2.734-11.133s8.789-1.172,11.133,2.734l0,0c0.195,0.195,17.578,27.93,50.391,33.008
				c4.492,0.781,7.422,4.883,6.836,9.375C669.336,1173.828,665.82,1176.758,661.914,1176.758z"/>
		</g>
		<g>
			<path fill="#562A15" d="M338.086,1176.758c-3.906,0-7.422-2.93-8.008-6.836c-0.586-4.492,2.344-8.594,6.836-9.375
				c33.203-5.078,50.195-32.617,50.391-33.008c2.344-3.906,7.227-5.078,11.133-2.734s5.078,7.422,2.734,11.133
				c-0.781,1.367-21.289,34.375-61.914,40.625C339.062,1176.758,338.477,1176.758,338.086,1176.758z"/>
		</g>
	</g>
	<g>
		<path fill="#562A15" d="M411.914,1395.117c-3.125,0-6.055-1.172-8.398-3.32l-22.07-21.094c-4.883-4.688-5.078-12.5-0.391-17.383
			s12.5-5.078,17.383-0.391l13.477,12.891l35.547-33.984c4.688-4.492,12.109-4.492,16.797,0l35.547,33.984l35.547-33.984
			c4.688-4.492,12.109-4.492,16.992,0l35.547,33.984l13.477-12.891c4.883-4.688,12.695-4.492,17.188,0.391
			c4.688,4.883,4.492,12.695-0.391,17.383l-22.07,21.094c-4.688,4.492-12.109,4.492-16.797,0l-35.547-33.984l-35.547,33.984
			c-4.688,4.492-12.109,4.492-16.992,0l-35.547-33.984l-35.547,33.984C418.164,1393.945,415.039,1395.117,411.914,1395.117z"/>
	</g>
</g>
</svg>
