<?xml version="1.0" encoding="utf-8"?>
<!-- Generator: Adobe Illustrator 16.0.0, SVG Export Plug-In . SVG Version: 6.00 Build 0)  -->
<!DOCTYPE svg PUBLIC "-//W3C//DTD SVG 1.1//EN" "http://www.w3.org/Graphics/SVG/1.1/DTD/svg11.dtd">
<svg version="1.1" id="Layer_1" xmlns="http://www.w3.org/2000/svg" xmlns:xlink="http://www.w3.org/1999/xlink" x="0px" y="0px"
	 width="500px" height="500px" viewBox="250 1000 500 500" enable-background="new 250 1000 500 500" xml:space="preserve">
<g>
	<circle fill="#FFCE07" cx="500" cy="1250" r="250"/>
	<g>
		<g>
			<g>
				<ellipse fill="#562A15" cx="393.164" cy="1204.102" rx="25.586" ry="30.664"/>
			</g>
		</g>
		<g>
			<path fill="#562A15" d="M623.828,1235.156c-1.953,0-3.906-0.781-5.469-2.148c-16.797-15.43-41.406-3.32-41.602-3.125
				c-3.32,1.758-7.227,0.977-9.766-1.758s-2.734-6.836-0.781-9.961c12.5-19.531,35.742-30.859,58.789-29.297
				c4.492,0.391,7.812,4.297,7.617,8.789c-0.391,4.492-4.297,7.812-8.789,7.617c-7.617-0.586-15.234,0.977-22.266,3.906
				c9.18,0.781,19.141,3.906,27.93,12.109c3.32,3.125,3.516,8.203,0.391,11.523C628.32,1234.18,625.977,1235.156,623.828,1235.156z"
				/>
		</g>
	</g>
	<g>
		<path fill="#562A15" d="M517.188,1412.695c-27.148,0-53.711-8.984-75.195-25.781c-5.273-4.102-6.25-11.914-2.148-17.188
			s11.914-6.25,17.188-2.148c17.969,13.867,40.234,21.289,63.086,20.508c54.102-1.758,96.68-47.07,95.117-100.977
			c-0.195-6.836,5.078-12.305,11.914-12.5c6.641-0.391,12.305,5.078,12.5,11.914c2.148,67.578-51.172,124.219-118.75,126.172
			C519.727,1412.695,518.359,1412.695,517.188,1412.695z"/>
	</g>
</g>
</svg>
