<?xml version="1.0" encoding="utf-8"?>
<!-- Generator: Adobe Illustrator 16.0.0, SVG Export Plug-In . SVG Version: 6.00 Build 0)  -->
<!DOCTYPE svg PUBLIC "-//W3C//DTD SVG 1.1//EN" "http://www.w3.org/Graphics/SVG/1.1/DTD/svg11.dtd">
<svg version="1.1" id="Layer_1" xmlns="http://www.w3.org/2000/svg" xmlns:xlink="http://www.w3.org/1999/xlink" x="0px" y="0px"
	 width="500px" height="500px" viewBox="250 1000 500 500" enable-background="new 250 1000 500 500" xml:space="preserve">
<g>
	<path fill="#FFCE07" d="M750,1250c0-138.086-111.914-250-250-250s-250,111.914-250,250c0,71.68,30.273,136.523,78.711,182.031
		v-248.633l33.008,11.523l33.008-11.523v293.359C426.758,1491.602,462.305,1500,500,1500s73.242-8.398,105.273-23.242v-293.359
		l33.008,11.523l33.008-11.523v248.633C719.727,1386.328,750,1321.68,750,1250z"/>
	<g>
		<g>
			<path fill="#562A15" d="M500,1401.758L500,1401.758c-27.539,0-49.805-22.266-49.805-49.805v-29.297
				c0-27.539,22.266-49.805,49.805-49.805l0,0c27.539,0,49.805,22.266,49.805,49.805v29.297
				C549.805,1379.492,527.539,1401.758,500,1401.758z"/>
		</g>
	</g>
	<path fill="#62C0EB" d="M638.281,1194.922l-33.008-11.523v293.359c24.414-11.328,46.68-26.562,66.016-44.727v-248.633
		L638.281,1194.922z"/>
	<path fill="#62C0EB" d="M361.719,1194.922l-33.008-11.523v248.633c19.336,18.164,41.602,33.398,66.016,44.727v-293.359
		L361.719,1194.922z"/>
	<g>
		<g>
			<path fill="#562A15" d="M334.766,1178.125c-2.539-1.562-6.055,0.195-6.055,3.32l0,0c0,18.164,14.844,33.008,33.008,33.008
				s33.008-14.844,33.008-33.008l0,0c0-3.125-3.516-4.883-6.055-3.32c-7.812,4.883-17.188,7.617-26.953,7.617
				C351.758,1185.938,342.578,1183.008,334.766,1178.125z"/>
		</g>
	</g>
	<g>
		<g>
			<path fill="#562A15" d="M611.328,1178.125c-2.539-1.562-6.055,0.195-6.055,3.32l0,0c0,18.164,14.844,33.008,33.008,33.008
				s33.008-14.844,33.008-33.008l0,0c0-3.125-3.32-4.883-6.055-3.32c-7.812,4.883-17.188,7.617-26.953,7.617
				S619.141,1183.008,611.328,1178.125z"/>
		</g>
	</g>
	<g>
		<g>
			<path fill="#562A15" d="M661.914,1146.484c-0.391,0-0.781,0-1.172,0c-40.625-6.25-61.133-39.258-61.914-40.625
				c-2.344-3.906-1.172-8.789,2.734-11.133s8.789-1.172,11.133,2.734c0.391,0.586,17.578,27.93,50.391,33.008
				c4.492,0.781,7.422,4.883,6.836,9.375C669.336,1143.555,665.82,1146.484,661.914,1146.484z"/>
		</g>
		<g>
			<path fill="#562A15" d="M338.086,1146.484c-3.906,0-7.422-2.93-8.008-6.836c-0.586-4.492,2.344-8.594,6.836-9.375
				c33.008-5.078,50.391-32.812,50.391-33.008c2.344-3.906,7.422-5.078,11.133-2.734c3.906,2.344,5.078,7.422,2.734,11.133
				c-0.781,1.367-21.289,34.375-61.914,40.625C339.062,1146.484,338.477,1146.484,338.086,1146.484z"/>
		</g>
	</g>
</g>
</svg>
