<?xml version="1.0" encoding="utf-8"?>
<!-- Generator: Adobe Illustrator 16.0.0, SVG Export Plug-In . SVG Version: 6.00 Build 0)  -->
<!DOCTYPE svg PUBLIC "-//W3C//DTD SVG 1.1//EN" "http://www.w3.org/Graphics/SVG/1.1/DTD/svg11.dtd">
<svg version="1.1" id="Layer_1" xmlns="http://www.w3.org/2000/svg" xmlns:xlink="http://www.w3.org/1999/xlink" x="0px" y="0px"
	 width="500px" height="500px" viewBox="250 1000 500 500" enable-background="new 250 1000 500 500" xml:space="preserve">
<g>
	<path fill="#FFCE07" d="M746.484,1250c0,137.109-111.133,248.242-248.242,248.242S250,1387.109,250,1250
		s111.133-248.242,248.242-248.242S746.484,1112.891,746.484,1250z"/>
	<g>
		<g>
			<path fill="#562A15" d="M494.336,1364.453c-3.711,0-6.836-2.539-7.617-6.445c-0.781-4.102,1.953-8.203,6.25-8.984
				c8.594-1.562,23.242-8.789,25.977-16.211c0.586-1.562,0.781-3.711-1.758-7.031c-5.469-6.641-19.727-0.195-27.539,5.664
				c-3.516,2.539-8.203,1.758-10.742-1.758s-1.758-8.203,1.758-10.742c16.016-11.719,37.305-16.992,48.633-2.734
				c7.031,8.789,6.25,16.797,4.297,22.07c-5.859,15.625-27.93,24.219-37.695,25.977
				C495.312,1364.453,494.727,1364.453,494.336,1364.453z"/>
		</g>
		<g>
			<path fill="#562A15" d="M510.547,1405.859c-9.766,0-20.703-4.688-29.883-11.328c-3.516-2.539-4.102-7.422-1.758-10.742
				c2.539-3.516,7.422-4.102,10.742-1.758c7.812,5.664,22.266,12.305,27.539,5.664c2.734-3.32,2.539-5.469,1.758-7.031
				c-2.734-7.422-17.578-14.648-25.977-16.211c-4.102-0.781-7.031-4.688-6.25-8.984c0.781-4.102,4.688-7.031,8.984-6.25
				c9.766,1.758,31.836,10.352,37.695,25.977c1.953,5.273,2.734,13.281-4.297,22.07
				C524.414,1403.32,517.773,1405.859,510.547,1405.859z"/>
		</g>
	</g>
	<g>
		<g>
			<path fill="#562A15" d="M566.406,1262.109c-3.125,0-6.25-1.172-8.594-3.516c-4.688-4.688-4.688-12.5,0-17.188
				c14.844-14.844,47.07-27.148,74.414,0c4.688,4.688,4.688,12.5,0,17.188s-12.5,4.688-17.188,0
				c-19.531-19.336-38.086-1.953-40.039,0C572.656,1260.938,569.531,1262.109,566.406,1262.109z"/>
		</g>
	</g>
	<g>
		<path fill="#562A15" d="M431.836,1242.578c0,18.945-11.719,34.18-26.172,34.18s-26.172-15.43-26.172-34.18
			c0-18.945,11.719-34.18,26.172-34.18S431.836,1223.633,431.836,1242.578z"/>
	</g>
	<g>
		<g>
			<path fill="#CD352F" d="M674.023,1332.617c72.852-34.375,97.461,47.852,55.664,83.008
				c-32.812,27.734-105.469,47.266-105.469,47.266c-3.906-5.859-41.016-62.891-47.07-105.469
				C569.336,1303.516,642.383,1258.594,674.023,1332.617z"/>
		</g>
	</g>
	<g>
		<path fill="#562A15" d="M348.828,1175.586c-0.195,0-0.391,0-0.586,0c-3.906-0.195-6.836-3.711-6.445-7.422
			c1.172-16.992,9.18-33.398,21.68-44.922s29.492-18.164,46.68-17.578c3.906,0,7.031,3.32,6.836,7.227
			c0,3.906-3.125,7.422-7.031,6.836c-13.477-0.195-26.953,4.883-36.914,13.867c-9.961,9.18-16.211,22.07-17.188,35.547
			C355.469,1172.656,352.539,1175.586,348.828,1175.586z"/>
	</g>
	<g>
		<path fill="#562A15" d="M632.031,1207.422c-1.562,0-3.125-0.586-4.492-1.562c-18.945-15.625-38.477-17.188-56.25-4.297
			c-3.125,2.344-7.422,1.562-9.766-1.562s-1.562-7.422,1.562-9.766c22.852-16.406,49.609-14.648,73.438,4.883
			c2.93,2.539,3.32,6.836,0.977,9.766C635.938,1206.641,633.984,1207.422,632.031,1207.422z"/>
	</g>
</g>
</svg>
