<?xml version="1.0" encoding="utf-8"?>
<!-- Generator: Adobe Illustrator 16.0.0, SVG Export Plug-In . SVG Version: 6.00 Build 0)  -->
<!DOCTYPE svg PUBLIC "-//W3C//DTD SVG 1.1//EN" "http://www.w3.org/Graphics/SVG/1.1/DTD/svg11.dtd">
<svg version="1.1" id="Layer_1" xmlns="http://www.w3.org/2000/svg" xmlns:xlink="http://www.w3.org/1999/xlink" x="0px" y="0px"
	 width="500px" height="500px" viewBox="250 1000 500 500" enable-background="new 250 1000 500 500" xml:space="preserve">
<g>
	<circle fill="#FFCE07" cx="500" cy="1250" r="250"/>
	<g>
		<g>
			<path fill="#562A15" d="M550.391,1370.898c-2.734,0-5.469-0.977-7.812-3.125c-10.547-9.766-24.805-15.43-40.234-16.016
				c-17.188-0.781-33.594,5.078-44.727,16.016c-4.492,4.297-11.719,4.102-16.016-0.391s-4.102-11.719,0.391-16.016
				c15.82-15.039,38.086-23.047,61.328-22.266c20.898,0.781,40.43,8.594,54.883,22.07c4.492,4.297,4.883,11.523,0.586,16.016
				C556.445,1369.531,553.32,1370.898,550.391,1370.898z"/>
		</g>
	</g>
	<g>
		<g>
			<path fill="#562A15" d="M349.023,1170.117c-1.953,0-3.906-0.781-5.273-2.539c-2.539-2.93-2.148-7.422,0.781-9.961
				c16.211-13.867,36.719-22.461,57.812-24.414c3.906-0.195,7.227,2.539,7.617,6.445s-2.539,7.227-6.445,7.617
				c-18.359,1.562-35.938,9.18-50,21.094C352.148,1169.531,350.586,1170.117,349.023,1170.117z"/>
		</g>
		<g>
			<path fill="#562A15" d="M650.977,1170.117c-1.562,0-3.32-0.586-4.492-1.758c-13.867-11.914-31.641-19.531-50-21.094
				c-3.906-0.391-6.641-3.711-6.445-7.617c0.391-3.906,3.711-6.641,7.617-6.445c21.094,1.953,41.797,10.547,57.812,24.414
				c2.93,2.539,3.32,7.031,0.781,9.961C654.883,1169.141,652.93,1170.117,650.977,1170.117z"/>
		</g>
	</g>
	<g>
		<g>
			<g>
				<path fill="#FFFFFF" d="M659.375,1235.547c0,30.273-23.633,54.688-52.734,54.688s-52.734-24.414-52.734-54.688
					c0-30.078,23.633-54.688,52.734-54.688S659.375,1205.273,659.375,1235.547z"/>
			</g>
			<g>
				<path fill="#562A15" d="M629.102,1235.547c0,12.891-10.156,23.438-22.461,23.438c-12.5,0-22.656-10.547-22.656-23.438
					s10.156-23.242,22.656-23.242C618.945,1212.109,629.102,1222.656,629.102,1235.547z"/>
			</g>
		</g>
		<g>
			<g>
				<path fill="#FFFFFF" d="M446.289,1235.547c0,30.273-23.633,54.688-52.734,54.688s-52.734-24.414-52.734-54.688
					c0-30.078,23.633-54.688,52.734-54.688S446.289,1205.273,446.289,1235.547z"/>
			</g>
			<g>
				<path fill="#562A15" d="M416.016,1235.547c0,12.891-10.156,23.438-22.461,23.438c-12.5,0-22.656-10.547-22.656-23.438
					s10.156-23.242,22.656-23.242C405.859,1212.109,416.016,1222.656,416.016,1235.547z"/>
			</g>
		</g>
	</g>
	<g>
		<g opacity="0.4">
			<path fill="#E45825" d="M696.484,1340.234c0,21.289-17.188,38.477-38.477,38.477s-38.477-17.188-38.477-38.477
				s17.188-38.477,38.477-38.477S696.484,1318.945,696.484,1340.234z"/>
		</g>
		<g opacity="0.4">
			<path fill="#E45825" d="M380.664,1340.234c0,21.289-17.188,38.477-38.477,38.477s-38.477-17.188-38.477-38.477
				s17.188-38.477,38.477-38.477C363.281,1301.758,380.664,1318.945,380.664,1340.234z"/>
		</g>
	</g>
</g>
</svg>
