<?xml version="1.0" encoding="utf-8"?>
<!-- Generator: Adobe Illustrator 16.0.0, SVG Export Plug-In . SVG Version: 6.00 Build 0)  -->
<!DOCTYPE svg PUBLIC "-//W3C//DTD SVG 1.1//EN" "http://www.w3.org/Graphics/SVG/1.1/DTD/svg11.dtd">
<svg version="1.1" id="Layer_1" xmlns="http://www.w3.org/2000/svg" xmlns:xlink="http://www.w3.org/1999/xlink" x="0px" y="0px"
	 width="500px" height="500px" viewBox="250 1000 500 500" enable-background="new 250 1000 500 500" xml:space="preserve">
<g>
	
		<linearGradient id="SVGID_1_" gradientUnits="userSpaceOnUse" x1="156.9165" y1="2837.3838" x2="156.9165" y2="2576.803" gradientTransform="matrix(1.9531 0 0 -1.9531 193.5234 6488.2891)">
		<stop  offset="0" style="stop-color:#528ECB"/>
		<stop  offset="0.5222" style="stop-color:#77BFBE"/>
		<stop  offset="0.8079" style="stop-color:#F7CE14"/>
		<stop  offset="1" style="stop-color:#FECF0A"/>
	</linearGradient>
	<circle fill="url(#SVGID_1_)" cx="500" cy="1250" r="250"/>
	<g>
		<g>
			<g>
				<g>
					<ellipse fill="#562A15" cx="398.438" cy="1256.836" rx="25.586" ry="36.523"/>
				</g>
			</g>
		</g>
		<g>
			<g>
				<g>
					<ellipse fill="#562A15" cx="606.641" cy="1256.836" rx="25.586" ry="36.523"/>
				</g>
			</g>
		</g>
	</g>
	<g>
		<g>
			<path fill="#562A15" d="M577.148,1394.922c6.445,1.367,10.938-8.398,6.641-14.648c-18.945-27.93-48.438-45.898-81.445-45.898
				s-62.5,17.969-81.445,45.898c-4.297,6.25,0.195,16.016,6.641,14.648c22.461-4.688,47.852-7.227,74.805-7.227
				C529.297,1387.891,554.883,1390.43,577.148,1394.922z"/>
		</g>
	</g>
	<g>
		<g>
			<path fill="#562A15" d="M653.125,1191.797c-0.391,0-0.781,0-1.172-0.195c-40.625-6.25-61.133-39.258-61.914-40.625
				c-2.344-3.906-1.172-8.789,2.734-11.133s8.789-1.172,11.133,2.734c0.391,0.391,17.578,27.93,50.391,33.008
				c4.492,0.781,7.422,4.883,6.836,9.375C660.547,1188.867,657.031,1191.797,653.125,1191.797z"/>
		</g>
		<g>
			<path fill="#562A15" d="M351.953,1191.797c-3.906,0-7.422-2.93-8.008-6.836c-0.781-4.492,2.344-8.594,6.836-9.375
				c33.203-5.078,50.195-32.617,50.391-33.008c2.344-3.906,7.422-5.078,11.133-2.734c3.906,2.344,5.078,7.422,2.734,11.133
				c-0.781,1.367-21.289,34.375-61.914,40.625C352.734,1191.797,352.344,1191.797,351.953,1191.797z"/>
		</g>
	</g>
	<g>
		<path fill="#62C0EB" d="M398.438,1372.852c0,19.531-15.82,35.352-35.352,35.352s-35.352-15.82-35.352-35.352
			c0-15.039,20.703-50.391,30.469-66.406c2.344-3.711,7.617-3.711,9.961,0C377.734,1322.461,398.438,1358.008,398.438,1372.852z"/>
	</g>
</g>
</svg>
